<svg fill="#000000" xmlns="http://www.w3.org/2000/svg"  viewBox="0 0 32 32" width="32px" height="32px"><path d="M 12.970703 3 A 1.0001 1.0001 0 0 0 12.445312 3.1679688 L 3.4453125 9.1679688 A 1.0001 1.0001 0 0 0 3 10 L 3 25 A 1.0001 1.0001 0 0 0 3.7246094 25.958984 L 3.7246094 25.960938 A 1.0001 1.0001 0 0 0 3.734375 25.962891 L 17.724609 29.960938 A 1.0001 1.0001 0 0 0 18.574219 29.818359 L 28.574219 22.818359 A 1.0001 1.0001 0 0 0 29 22 L 29 7 A 1.0001 1.0001 0 0 0 28.195312 6.0195312 L 28.169922 6.0136719 A 1.0001 1.0001 0 0 0 28.160156 6.0117188 L 13.267578 3.0351562 A 1.0001 1.0001 0 0 0 13.208984 3.0214844 L 13.195312 3.0195312 A 1.0001 1.0001 0 0 0 12.970703 3 z M 14 5.21875 L 25.269531 7.4726562 L 17.826172 11.939453 L 14 11.119141 L 14 5.21875 z M 12 5.8691406 L 12 10.691406 L 6.5253906 9.5175781 L 12 5.8691406 z M 27 8.765625 L 27 20.697266 L 19 18.564453 L 19 13.566406 L 27 8.765625 z M 5 11.238281 L 12 12.738281 L 12 17.511719 L 5 22.957031 L 5 11.238281 z M 14 13.166016 L 17 13.808594 L 17 18.03125 L 14 17.230469 L 14 13.166016 z M 13.220703 19.09375 L 17 20.101562 L 17 27.673828 L 6.1679688 24.580078 L 13.220703 19.09375 z M 19 20.634766 L 25.667969 22.414062 L 19 27.080078 L 19 20.634766 z"/></svg>